<svg width="192" height="192" viewBox="0 0 192 192" fill="none" xmlns="http://www.w3.org/2000/svg">
<rect width="192" height="192" fill="white"/>
<path d="M46.3095 83.7036C46.3095 84.6296 43.4081 85.0926 37.6052 85.0926L32.4197 84.8148C29.333 84.5679 27.7897 84.1357 27.7897 83.5184V21.3846C27.7897 20.3351 30.8764 19.8104 37.0496 19.8104C43.2229 19.8104 46.3095 20.3351 46.3095 21.3846V45.0899L57.6066 21.3846C58.0387 20.5203 60.508 20.0882 65.0145 20.0882C73.2249 20.0882 77.5462 20.7981 77.9783 22.218C77.9783 22.3414 77.9474 22.4649 77.8857 22.5884L61.7735 51.6644L80.4785 77.4995C80.4785 77.623 79.892 78.1477 78.7191 79.0737C75.8794 81.543 72.5458 83.4876 68.7184 84.9074C67.5455 85.3395 66.3726 85.5556 65.1997 85.5556L62.9773 85.3704C61.0019 84.8765 59.4585 83.611 58.3474 81.5738L47.7911 61.3873H46.3095V83.7036ZM82.5265 21.1068C82.3413 20.4277 85.4588 20.0882 91.879 20.0882C98.9782 20.0882 102.62 20.6747 102.806 21.8476L107.343 60.8317L117.158 21.3846C117.467 20.4586 119.875 19.9956 124.381 19.9956C128.888 19.9956 131.295 20.4277 131.604 21.292L141.234 61.0169L146.605 21.6624C146.728 20.9833 148.148 20.5203 150.864 20.2734C153.581 20.0265 155.772 19.903 157.439 19.903C163.921 19.903 167.069 20.3351 166.884 21.1994L155.68 82.5924C155.433 83.5184 153.673 84.1975 150.401 84.6296C147.13 85.0617 144.475 85.2778 142.438 85.2778C134.783 85.2778 130.771 84.4135 130.4 82.685L124.103 57.2203L117.251 82.5924C117.004 83.7036 114.844 84.5061 110.769 85C108.67 85.1852 106.571 85.2778 104.472 85.2778L98.5461 85C94.4718 84.5679 92.3111 83.7962 92.0642 82.685L82.5265 21.1068ZM65.8717 178.926C57.2292 178.926 50.1608 176.086 44.6666 170.407C39.2341 164.727 36.5179 156.455 36.5179 145.59C36.5179 134.664 39.265 126.392 44.7592 120.774C50.3151 115.156 57.4452 112.347 66.1495 112.347C74.9156 112.347 81.9839 115.125 87.3547 120.681C92.7254 126.176 95.4108 134.54 95.4108 145.776C95.4108 156.949 92.6637 165.283 87.1695 170.777C81.6753 176.21 74.576 178.926 65.8717 178.926ZM65.9643 130.126C63.0012 130.126 60.501 131.485 58.4638 134.201C56.4884 136.917 55.5007 140.744 55.5007 145.683C55.5007 150.56 56.4575 154.326 58.3712 156.98C60.2849 159.573 62.7851 160.869 65.8717 160.869C69.0201 160.869 71.5511 159.542 73.4648 156.887C75.4403 154.233 76.428 150.436 76.428 145.498C76.428 140.559 75.4094 136.763 73.3722 134.108C71.3968 131.454 68.9275 130.126 65.9643 130.126ZM153.59 175.963C153.59 177.259 150.688 177.907 144.885 177.907C139.082 177.907 135.934 177.444 135.44 176.518L119.976 147.628V176.426C119.976 177.537 117.106 178.093 111.365 178.093C105.685 178.093 102.845 177.537 102.845 176.426V114.477C102.845 113.551 105.284 113.088 110.161 113.088C112.074 113.088 114.297 113.273 116.828 113.644C119.421 113.952 120.995 114.57 121.55 115.496L136.366 144.016V114.94C136.366 113.767 139.237 113.181 144.978 113.181C150.719 113.181 153.59 113.767 153.59 114.94V175.963Z" fill="black"/>
<ellipse cx="57.7246" cy="144.705" rx="32.0238" ry="34.5317" fill="#ED3C24"/>
</svg>
